<?xml version="1.0" standalone="no"?><!DOCTYPE svg PUBLIC "-//W3C//DTD SVG 1.1//EN" "http://www.w3.org/Graphics/SVG/1.1/DTD/svg11.dtd"><svg t="1747547227966" class="icon" viewBox="0 0 1024 1024" version="1.1" xmlns="http://www.w3.org/2000/svg" p-id="5807" xmlns:xlink="http://www.w3.org/1999/xlink" width="200" height="200"><path d="M97.4 99.2c-6.2 2-12.8 6-18.4 11.8-16 16-15-7-15 322s-1 306 15 322c14.4 14.4 18.2 15 103.4 15H256l0.4 79.8 0.6 79.8 117.6-79.8L492 770h212.6c240 0 226.6 0.8 242.4-15 16-16 15 7 15-322s1-306-15-322c-16.2-16.2 20.4-15-434.8-14.8-352.2 0-406.4 0.4-414.8 3z" p-id="5808" fill="#00c5ff"></path></svg>